<?xml version="1.0" standalone="no"?>
<!DOCTYPE svg PUBLIC "-//W3C//DTD SVG 20010904//EN"
 "http://www.w3.org/TR/2001/REC-SVG-20010904/DTD/svg10.dtd">
<svg version="1.0" xmlns="http://www.w3.org/2000/svg"
 width="24.000000pt" height="24.000000pt" viewBox="0 0 24.000000 24.000000"
 preserveAspectRatio="xMidYMid meet">

<g transform="translate(0.000000,24.000000) scale(0.100000,-0.100000)"
fill="#000000" stroke="none">
<path d="M60 193 c0 -45 -3 -53 -19 -53 -24 0 -42 -22 -32 -39 5 -7 19 -11 32
-9 22 3 25 9 29 63 5 55 6 58 18 37 7 -12 10 -32 6 -44 -4 -14 -2 -18 5 -14
19 12 12 49 -14 81 l-24 30 -1 -52z"/>
</g>
</svg>
